<svg xmlns="http://www.w3.org/2000/svg" width="95" height="58.598" viewBox="0 0 95 58.598" fill="none">
  <path d="M 92.917 25.684 L 50.668 0.609 C 49.323 -0.19 47.646 -0.202 46.285 0.568 L 2.148 25.644 C -0.716 27.27 -0.716 31.334 2.148 32.96 L 46.285 58.031 C 47.642 58.802 49.323 58.785 50.668 57.991 L 92.921 32.919 C 95.693 31.277 95.693 27.327 92.921 25.684 L 92.917 25.684 Z M 47.497 44.882 C 38.736 44.882 31.635 37.908 31.635 29.304 C 31.635 20.7 38.736 13.726 47.497 13.726 C 56.258 13.726 63.359 20.7 63.359 29.304 C 63.359 37.908 56.258 44.882 47.497 44.882 Z" fill="currentColor" fill-rule="nonzero"/>
</svg>
