<svg xmlns="http://www.w3.org/2000/svg" width="497.368" height="280" viewBox="0 0 497.368 280" fill="none">
  <path d="M 486.461 122.728 L 265.268 2.91 C 258.228 -0.907 249.45 -0.966 242.323 2.715 L 11.244 122.533 C -3.748 130.304 -3.748 149.722 11.244 157.493 L 242.323 277.292 C 249.428 280.973 258.228 280.895 265.268 277.097 L 486.483 157.299 C 500.997 149.45 500.997 130.577 486.483 122.728 L 486.461 122.728 Z M 248.668 214.461 C 202.8 214.461 165.623 181.137 165.623 140.023 C 165.623 98.909 202.8 65.585 248.668 65.585 C 294.536 65.585 331.713 98.909 331.713 140.023 C 331.713 181.137 294.536 214.461 248.668 214.461 Z" fill="currentColor" fill-rule="nonzero"/>
</svg>
