<svg xmlns="http://www.w3.org/2000/svg" width="240.940" height="605.815" viewBox="0 0 240.940 605.815" fill="none">
  <path d="M 227.191 324.132 C 226.384 329.384 225.621 334.459 224.821 339.526 C 221.913 357.945 219.613 376.444 217.52 394.965 C 214.833 418.731 212.223 442.501 209.632 466.278 C 207.667 484.324 205.544 502.345 202.216 520.203 C 200.145 531.315 197.428 542.26 193.241 552.779 C 189.087 563.212 183.643 572.869 176.054 581.288 C 166.183 592.237 153.821 598.841 139.774 602.594 C 127.534 605.864 115.024 606.218 102.477 605.511 C 85.983 604.579 69.799 601.979 54.274 596.02 C 43.032 591.703 32.789 585.759 24.043 577.443 C 12.038 566.03 5.418 551.839 2.462 535.686 C -0.365 520.229 -0.369 504.676 0.531 489.105 C 2.182 460.551 6.207 432.259 10.346 403.978 C 13.719 380.926 17.054 357.86 19.255 334.654 C 19.771 329.188 20.04 323.697 20.427 318.188 C 21.824 318.283 21.577 319.429 21.864 320.121 C 26.416 331.111 30.813 342.171 36.899 352.453 C 39.155 356.262 41.602 359.933 44.385 363.37 C 46.556 366.051 48.944 368.518 51.908 370.352 C 58.737 374.577 66.585 372.492 70.462 365.406 C 72.541 361.609 72.928 357.484 72.655 353.264 C 72.305 347.835 70.875 342.635 69.139 337.512 C 64.708 324.463 58.642 312.144 52.357 299.92 C 44.001 283.667 34.809 267.857 26.593 251.523 C 24.463 247.284 23.147 243.052 22.804 238.261 C 21.197 215.788 16.907 193.786 10.117 172.307 C 8.404 166.882 8.138 161.788 9.41 156.172 C 16.995 122.738 30.014 91.529 47.145 61.933 C 56.636 45.537 67.499 30.106 79.739 15.654 C 83.303 11.448 87.078 7.397 91 3.522 C 95.282 -0.709 98.202 -0.975 103.565 1.905 C 107.682 4.119 111.445 6.892 115.171 9.695 C 133.593 23.557 149.966 39.6 165.221 56.818 C 177.2 70.334 188.331 84.521 198.398 99.525 C 214.542 123.582 228.05 148.939 236.48 176.789 C 237.899 181.481 239.063 186.25 240.342 190.983 C 241.19 194.117 241.024 197.207 240.538 200.43 C 237.176 222.678 230.851 243.954 220.343 263.934 C 215.201 273.709 209.816 283.34 204.243 292.875 C 195.766 307.385 186.798 321.613 178.977 336.499 C 175.833 342.48 172.869 348.568 171.62 355.271 C 170.662 360.401 170.643 365.52 173.253 370.323 C 175.848 375.096 180.558 377.394 185.906 376.4 C 190.506 375.545 194.395 373.302 197.837 370.201 C 203.746 364.88 208.139 358.368 212.256 351.669 C 217.081 343.824 221.176 335.586 225.061 327.24 C 225.547 326.19 225.632 324.82 227.188 324.132 L 227.191 324.132 Z" fill="currentColor" fill-rule="nonzero"/>
</svg>
